<svg width="20" height="20" viewBox="0 0 20 20" fill="none" xmlns="http://www.w3.org/2000/svg">
<path d="M5.75 0.740741C5.75 0.544284 5.67098 0.355874 5.53033 0.216958C5.38968 0.0780421 5.19891 0 5 0C4.80109 0 4.61032 0.0780421 4.46967 0.216958C4.32902 0.355874 4.25 0.544284 4.25 0.740741V2.30123C2.81 2.41481 1.866 2.69333 1.172 3.37975C0.477002 4.06519 0.195002 4.99852 0.0790024 6.41975H19.921C19.805 4.99753 19.523 4.06519 18.828 3.37975C18.134 2.69333 17.189 2.41481 15.75 2.30025V0.740741C15.75 0.544284 15.671 0.355874 15.5303 0.216958C15.3897 0.0780421 15.1989 0 15 0C14.8011 0 14.6103 0.0780421 14.4697 0.216958C14.329 0.355874 14.25 0.544284 14.25 0.740741V2.23506C13.585 2.22222 12.839 2.22222 12 2.22222H8C7.161 2.22222 6.415 2.22222 5.75 2.23506V0.740741Z" fill="white"/>
<path fill-rule="evenodd" clip-rule="evenodd" d="M0 10.1235C0 9.29483 1.11759e-08 8.55804 0.013 7.90125H19.987C20 8.55804 20 9.29483 20 10.1235V12.0988C20 15.8232 20 17.6859 18.828 18.8425C17.656 19.999 15.771 20 12 20H8C4.229 20 2.343 20 1.172 18.8425C0.000999928 17.6849 0 15.8232 0 12.0988V10.1235ZM15 12.0988C15.2652 12.0988 15.5196 11.9947 15.7071 11.8095C15.8946 11.6243 16 11.3731 16 11.1111C16 10.8492 15.8946 10.598 15.7071 10.4127C15.5196 10.2275 15.2652 10.1235 15 10.1235C14.7348 10.1235 14.4804 10.2275 14.2929 10.4127C14.1054 10.598 14 10.8492 14 11.1111C14 11.3731 14.1054 11.6243 14.2929 11.8095C14.4804 11.9947 14.7348 12.0988 15 12.0988ZM15 16.0494C15.2652 16.0494 15.5196 15.9453 15.7071 15.7601C15.8946 15.5749 16 15.3237 16 15.0617C16 14.7998 15.8946 14.5486 15.7071 14.3634C15.5196 14.1781 15.2652 14.0741 15 14.0741C14.7348 14.0741 14.4804 14.1781 14.2929 14.3634C14.1054 14.5486 14 14.7998 14 15.0617C14 15.3237 14.1054 15.5749 14.2929 15.7601C14.4804 15.9453 14.7348 16.0494 15 16.0494ZM11 11.1111C11 11.3731 10.8946 11.6243 10.7071 11.8095C10.5196 11.9947 10.2652 12.0988 10 12.0988C9.73478 12.0988 9.48043 11.9947 9.29289 11.8095C9.10536 11.6243 9 11.3731 9 11.1111C9 10.8492 9.10536 10.598 9.29289 10.4127C9.48043 10.2275 9.73478 10.1235 10 10.1235C10.2652 10.1235 10.5196 10.2275 10.7071 10.4127C10.8946 10.598 11 10.8492 11 11.1111ZM11 15.0617C11 15.3237 10.8946 15.5749 10.7071 15.7601C10.5196 15.9453 10.2652 16.0494 10 16.0494C9.73478 16.0494 9.48043 15.9453 9.29289 15.7601C9.10536 15.5749 9 15.3237 9 15.0617C9 14.7998 9.10536 14.5486 9.29289 14.3634C9.48043 14.1781 9.73478 14.0741 10 14.0741C10.2652 14.0741 10.5196 14.1781 10.7071 14.3634C10.8946 14.5486 11 14.7998 11 15.0617ZM5 12.0988C5.26522 12.0988 5.51957 11.9947 5.70711 11.8095C5.89464 11.6243 6 11.3731 6 11.1111C6 10.8492 5.89464 10.598 5.70711 10.4127C5.51957 10.2275 5.26522 10.1235 5 10.1235C4.73478 10.1235 4.48043 10.2275 4.29289 10.4127C4.10536 10.598 4 10.8492 4 11.1111C4 11.3731 4.10536 11.6243 4.29289 11.8095C4.48043 11.9947 4.73478 12.0988 5 12.0988ZM5 16.0494C5.26522 16.0494 5.51957 15.9453 5.70711 15.7601C5.89464 15.5749 6 15.3237 6 15.0617C6 14.7998 5.89464 14.5486 5.70711 14.3634C5.51957 14.1781 5.26522 14.0741 5 14.0741C4.73478 14.0741 4.48043 14.1781 4.29289 14.3634C4.10536 14.5486 4 14.7998 4 15.0617C4 15.3237 4.10536 15.5749 4.29289 15.7601C4.48043 15.9453 4.73478 16.0494 5 16.0494Z" fill="white"/>
</svg>
