<svg width="20" height="16" viewBox="0 0 20 16" fill="none" xmlns="http://www.w3.org/2000/svg">
<path d="M19.4634 7.51623C18.5796 3.15823 17.2496 0.832205 15.2765 0.196843C14.8618 0.0641379 14.4316 -0.00215087 13.9994 5.32031e-05C13.4281 5.32031e-05 12.9306 0.151849 12.4043 0.312735C11.7701 0.506798 11.0496 0.72722 9.99914 0.72722C8.94866 0.72722 8.22779 0.507252 7.59234 0.31319C7.06564 0.151849 6.56853 5.32031e-05 5.99891 5.32031e-05C5.55198 -0.00166059 5.107 0.0644172 4.67675 0.196388C2.71414 0.829024 1.3849 3.15414 0.488178 7.51351C-0.476044 12.2046 -0.00143361 15.1665 1.81909 15.8537C2.06863 15.9496 2.3312 15.9991 2.5958 16C3.84295 16 4.84301 14.867 5.52638 13.9394C6.29851 12.8895 7.20231 12.3569 9.99914 12.3569C12.4972 12.3569 13.531 12.7264 14.424 13.9394C14.9853 14.702 15.5157 15.2356 16.0449 15.5714C16.7487 16.0177 17.4521 16.1168 18.135 15.8609C19.2109 15.4605 19.8276 14.4021 19.9685 12.7141C20.0756 11.4198 19.9105 9.71955 19.4634 7.51623ZM7.99903 7.27172H6.66562V8.72606C6.66562 8.91891 6.59537 9.10387 6.47034 9.24024C6.34531 9.37661 6.17573 9.45323 5.99891 9.45323C5.82209 9.45323 5.65251 9.37661 5.52748 9.24024C5.40245 9.10387 5.33221 8.91891 5.33221 8.72606V7.27172H3.9988C3.82198 7.27172 3.6524 7.19511 3.52737 7.05874C3.40233 6.92237 3.33209 6.73741 3.33209 6.54456C3.33209 6.3517 3.40233 6.16674 3.52737 6.03037C3.6524 5.894 3.82198 5.81739 3.9988 5.81739H5.33221V4.36306C5.33221 4.1702 5.40245 3.98524 5.52748 3.84887C5.65251 3.7125 5.82209 3.63589 5.99891 3.63589C6.17573 3.63589 6.34531 3.7125 6.47034 3.84887C6.59537 3.98524 6.66562 4.1702 6.66562 4.36306V5.81739H7.99903C8.17585 5.81739 8.34543 5.894 8.47046 6.03037C8.59549 6.16674 8.66573 6.3517 8.66573 6.54456C8.66573 6.73741 8.59549 6.92237 8.47046 7.05874C8.34543 7.19511 8.17585 7.27172 7.99903 7.27172ZM11.4992 7.45352C11.3344 7.45352 11.1733 7.40021 11.0362 7.30033C10.8992 7.20045 10.7924 7.05849 10.7293 6.8924C10.6662 6.72631 10.6497 6.54355 10.6819 6.36723C10.714 6.19091 10.7934 6.02895 10.9099 5.90183C11.0265 5.77471 11.175 5.68814 11.3366 5.65306C11.4983 5.61799 11.6659 5.63599 11.8181 5.70479C11.9704 5.77359 12.1006 5.89009 12.1922 6.03957C12.2837 6.18904 12.3326 6.36478 12.3326 6.54456C12.3326 6.78563 12.2448 7.01682 12.0885 7.18729C11.9322 7.35775 11.7203 7.45352 11.4992 7.45352ZM13.3327 9.45323C13.1678 9.45322 13.0065 9.39986 12.8694 9.29988C12.7324 9.1999 12.6255 9.05781 12.5625 8.89158C12.4995 8.72536 12.4831 8.54248 12.5155 8.3661C12.5478 8.18972 12.6274 8.02776 12.7441 7.90073C12.8609 7.7737 13.0096 7.68731 13.1714 7.6525C13.3332 7.61768 13.5008 7.63601 13.653 7.70515C13.8053 7.7743 13.9353 7.89116 14.0266 8.04093C14.1179 8.19071 14.1665 8.36667 14.166 8.54654C14.1655 8.78722 14.0775 9.01783 13.9212 9.1878C13.765 9.35777 13.5533 9.45323 13.3327 9.45323ZM13.3327 5.45381C13.1678 5.45381 13.0067 5.4005 12.8697 5.30062C12.7326 5.20074 12.6258 5.05878 12.5627 4.89269C12.4996 4.7266 12.4831 4.54384 12.5153 4.36752C12.5475 4.1912 12.6268 4.02924 12.7434 3.90212C12.8599 3.775 13.0084 3.68843 13.1701 3.65335C13.3317 3.61828 13.4993 3.63628 13.6516 3.70508C13.8039 3.77388 13.934 3.89038 14.0256 4.03986C14.1172 4.18933 14.166 4.36507 14.166 4.54485C14.166 4.78592 14.0782 5.01712 13.922 5.18758C13.7657 5.35804 13.5537 5.45381 13.3327 5.45381ZM15.1661 7.45352C15.0013 7.45352 14.8402 7.40021 14.7031 7.30033C14.5661 7.20045 14.4592 7.05849 14.3962 6.8924C14.3331 6.72631 14.3166 6.54355 14.3487 6.36723C14.3809 6.19091 14.4603 6.02895 14.5768 5.90183C14.6934 5.77471 14.8419 5.68814 15.0035 5.65306C15.1652 5.61799 15.3327 5.63599 15.485 5.70479C15.6373 5.77359 15.7675 5.89009 15.859 6.03957C15.9506 6.18904 15.9995 6.36478 15.9995 6.54456C15.9995 6.78563 15.9117 7.01682 15.7554 7.18729C15.5991 7.35775 15.3871 7.45352 15.1661 7.45352Z" fill="white"/>
</svg>
