<svg width="20" height="23" viewBox="0 0 20 23" fill="none" xmlns="http://www.w3.org/2000/svg">
<path fill-rule="evenodd" clip-rule="evenodd" d="M0 9.96651C0.00163145 7.32266 1.05592 4.78766 2.93111 2.91875C4.80629 1.04984 7.3489 -5.0061e-07 10 0C15.5215 0 20 4.46314 20 9.96651C20 14.0691 17.9415 17.3202 15.7354 19.5172C14.7587 20.4925 13.666 21.3447 12.4815 22.0549C11.9862 22.3464 11.5231 22.5765 11.12 22.733C10.74 22.8834 10.3415 23 10 23C9.65846 23 9.26 22.8834 8.88 22.733C8.40954 22.5418 7.95438 22.3151 7.51846 22.0549C6.33401 21.3447 5.24126 20.4925 4.26462 19.5172C2.05846 17.3202 0 14.0691 0 9.96651ZM10 6.13241C8.97994 6.13241 8.00165 6.53652 7.28036 7.25584C6.55906 7.97517 6.15385 8.95077 6.15385 9.96805C6.15385 10.9853 6.55906 11.9609 7.28036 12.6803C8.00165 13.3996 8.97994 13.8037 10 13.8037C11.0201 13.8037 11.9983 13.3996 12.7196 12.6803C13.4409 11.9609 13.8462 10.9853 13.8462 9.96805C13.8462 8.95077 13.4409 7.97517 12.7196 7.25584C11.9983 6.53652 11.0201 6.13241 10 6.13241Z" fill="white"/>
</svg>
