<svg width="20" height="20" viewBox="0 0 20 20" fill="none" xmlns="http://www.w3.org/2000/svg">
<path fill-rule="evenodd" clip-rule="evenodd" d="M14.1369 2.72825L15.9669 4.55825C18.6559 7.24825 19.9999 8.59225 19.9999 10.2622C19.9999 11.9332 18.6559 13.2772 15.9669 15.9662C13.2769 18.6562 11.9329 20.0002 10.2619 20.0002C8.59187 20.0002 7.24687 18.6562 4.55787 15.9672L2.72787 14.1372C1.18287 12.5912 0.409866 11.8192 0.122866 10.8162C-0.165134 9.81324 0.0808662 8.74825 0.572866 6.61925L0.855866 5.39125C1.26887 3.59925 1.47587 2.70325 2.08887 2.08925C2.70187 1.47525 3.59887 1.26925 5.39087 0.856245L6.61887 0.572245C8.74887 0.0812454 9.81287 -0.164755 10.8159 0.122245C11.8189 0.410245 12.5919 1.18325 14.1369 2.72825ZM9.14587 12.3282C8.47287 11.6562 8.47787 10.6902 8.88087 9.92525C8.7811 9.78114 8.73495 9.60664 8.75044 9.43205C8.76593 9.25747 8.84207 9.09382 8.96565 8.96953C9.08923 8.84523 9.25244 8.76815 9.42693 8.75166C9.60143 8.73516 9.77619 8.78031 9.92087 8.87924C10.2609 8.69924 10.6339 8.60325 11.0059 8.60725C11.2048 8.6091 11.3948 8.6899 11.5341 8.83186C11.6735 8.97383 11.7507 9.16533 11.7489 9.36425C11.747 9.56316 11.6662 9.75319 11.5242 9.89252C11.3823 10.0319 11.1908 10.1091 10.9919 10.1072C10.7603 10.1158 10.5415 10.2153 10.3829 10.3842C9.99587 10.7712 10.0969 11.1592 10.2059 11.2682C10.3159 11.3772 10.7029 11.4782 11.0899 11.0912C11.8739 10.3072 13.2279 10.0472 14.0949 10.9142C14.7679 11.5872 14.7629 12.5532 14.3599 13.3182C14.459 13.4624 14.5046 13.6366 14.4889 13.8109C14.4731 13.9851 14.3969 14.1483 14.2735 14.2723C14.1501 14.3963 13.9873 14.4733 13.8131 14.4899C13.639 14.5065 13.4645 14.4617 13.3199 14.3632C12.8711 14.6095 12.3506 14.6915 11.8479 14.5952C11.6529 14.5552 11.4819 14.4394 11.3724 14.2732C11.2628 14.107 11.2238 13.9042 11.2639 13.7092C11.3039 13.5143 11.4198 13.3433 11.5859 13.2337C11.7521 13.1242 11.9549 13.0852 12.1499 13.1252C12.3269 13.1622 12.6129 13.1042 12.8579 12.8592C13.2449 12.4712 13.1439 12.0842 13.0349 11.9752C12.9249 11.8662 12.5379 11.7652 12.1509 12.1522C11.3669 12.9362 10.0129 13.1962 9.14587 12.3282ZM8.01987 8.29325C8.20556 8.10749 8.35284 7.88698 8.45331 7.64431C8.55378 7.40163 8.60546 7.14154 8.60542 6.87889C8.60537 6.61624 8.55359 6.35617 8.45304 6.11353C8.35248 5.87089 8.20512 5.65043 8.01937 5.46475C7.83361 5.27906 7.6131 5.13177 7.37043 5.0313C7.12775 4.93083 6.86766 4.87915 6.60501 4.87919C6.34236 4.87924 6.08229 4.93102 5.83965 5.03157C5.59701 5.13213 5.37656 5.27949 5.19087 5.46525C4.81585 5.84039 4.60522 6.34915 4.60531 6.8796C4.60541 7.41005 4.81622 7.91873 5.19137 8.29375C5.56652 8.66876 6.07527 8.87939 6.60572 8.8793C7.13617 8.8792 7.64485 8.66839 8.01987 8.29325Z" fill="white"/>
</svg>
